<!DOCTYPE svg PUBLIC "-//W3C//DTD SVG 1.1//EN" "http://www.w3.org/Graphics/SVG/1.1/DTD/svg11.dtd">
<!-- Uploaded to: SVG Repo, www.svgrepo.com, Transformed by: SVG Repo Mixer Tools -->
<svg fill="#ffffff" width="800px" height="800px" viewBox="0 0 32 32" version="1.1" xmlns="http://www.w3.org/2000/svg" stroke="#ffffff">
<g id="SVGRepo_bgCarrier" stroke-width="0"/>
<g id="SVGRepo_tracerCarrier" stroke-linecap="round" stroke-linejoin="round"/>
<g id="SVGRepo_iconCarrier"> <title>nasa</title> <path d="M20.406 19.988c0.096 0.012 0.206 0.019 0.319 0.019 0.691 0 1.321-0.262 1.795-0.692l-0.002 0.002c0.44-0.419 0.713-1.009 0.713-1.663 0-0.041-0.001-0.082-0.003-0.123l0 0.006c0-0.018 0.001-0.040 0.001-0.061 0-0.636-0.242-1.215-0.639-1.65l0.002 0.002c-0.481-0.421-1.116-0.678-1.81-0.678-0.118 0-0.234 0.007-0.348 0.022l0.014-0.001h-1.425c-0.544 0-0.761-0.066-0.933-0.235-0.108-0.118-0.175-0.277-0.175-0.451 0-0.014 0-0.028 0.001-0.041l-0 0.002c-0.001-0.014-0.002-0.031-0.002-0.048 0-0.197 0.074-0.377 0.197-0.512l-0.001 0.001c0.143-0.118 0.329-0.19 0.531-0.19 0.038 0 0.074 0.002 0.111 0.007l-0.004-0h4.119v-1.69h-3.805c-0.096-0.012-0.206-0.019-0.319-0.019-0.691 0-1.32 0.262-1.794 0.692l0.002-0.002c-0.44 0.419-0.714 1.010-0.714 1.665 0 0.041 0.001 0.081 0.003 0.122l-0-0.006c-0 0.018-0.001 0.038-0.001 0.059 0 0.636 0.242 1.216 0.639 1.652l-0.002-0.002c0.482 0.421 1.117 0.678 1.812 0.678 0.118 0 0.234-0.007 0.348-0.022l-0.014 0.001h1.424c0.545 0 0.761 0.066 0.933 0.235 0.109 0.118 0.176 0.277 0.176 0.451 0 0.014-0 0.028-0.001 0.042l0-0.002c0.001 0.014 0.001 0.031 0.001 0.047 0 0.197-0.075 0.377-0.198 0.512l0.001-0.001c-0.143 0.118-0.328 0.19-0.53 0.19-0.038 0-0.075-0.003-0.111-0.007l0.004 0h-4.249l-1.63-5.099c-0.095-0.333-0.261-0.619-0.48-0.855l0.001 0.001c-0.335-0.326-0.793-0.527-1.298-0.527-0.043 0-0.086 0.001-0.129 0.004l0.006-0c-0.037-0.003-0.081-0.004-0.124-0.004-0.505 0-0.962 0.202-1.296 0.529l0-0c-0.219 0.234-0.385 0.52-0.477 0.838l-0.004 0.015-2.169 6.789h1.777l1.987-6.215c0.016-0.063 0.042-0.118 0.076-0.166l-0.001 0.002c0.057-0.063 0.14-0.102 0.232-0.102s0.174 0.039 0.231 0.102l0 0c0.033 0.047 0.059 0.102 0.074 0.161l0.001 0.004 1.985 6.215zM29.197 19.988l-1.985-6.215c-0.016-0.063-0.042-0.118-0.076-0.166l0.001 0.002c-0.057-0.063-0.14-0.102-0.232-0.102s-0.174 0.039-0.231 0.102l-0 0c-0.033 0.047-0.059 0.102-0.074 0.161l-0.001 0.004-1.985 6.215h-1.778l2.17-6.789c0.095-0.333 0.261-0.619 0.48-0.855l-0.001 0.001c0.38-0.325 0.877-0.523 1.42-0.523s1.042 0.198 1.424 0.527l-0.003-0.002c0.219 0.234 0.384 0.52 0.476 0.838l0.004 0.015 2.17 6.789zM6.446 17.994c0.094 0.351 0.243 0.487 0.508 0.487 0.275 0 0.418-0.165 0.418-0.487v-5.983h1.721v5.983c0.013 0.084 0.021 0.182 0.021 0.281 0 0.528-0.213 1.006-0.557 1.354l0-0c-0.396 0.342-0.915 0.551-1.483 0.551-0.039 0-0.078-0.001-0.117-0.003l0.005 0c-0.020 0.001-0.044 0.001-0.068 0.001-0.547 0-1.046-0.208-1.421-0.549l0.002 0.002c-0.39-0.443-0.658-1.002-0.746-1.619l-0.002-0.017-1.056-3.988c-0.092-0.351-0.242-0.487-0.507-0.487-0.275 0-0.419 0.165-0.419 0.487v5.983h-1.72v-5.983c-0.013-0.084-0.021-0.182-0.021-0.281 0-0.528 0.213-1.006 0.557-1.354l-0 0c0.396-0.342 0.915-0.551 1.483-0.551 0.039 0 0.078 0.001 0.117 0.003l-0.005-0c0.020-0.001 0.044-0.001 0.068-0.001 0.547 0 1.046 0.208 1.421 0.549l-0.002-0.002c0.389 0.443 0.657 1.002 0.746 1.619l0.002 0.017z"/> </g>
</svg>